<svg xmlns="http://www.w3.org/2000/svg" viewBox="0 0 532.43 532.43"><defs><style>.cls-1,.cls-2{fill:#74a137;}.cls-1{fill-rule:evenodd;}</style></defs><title>Biostar</title><path class="cls-1" d="M532.26,470.57h2.23l5.13,9.31h5.59l-5.65-9.72c2.93-.18,5.33-1.63,5.33-5.74,0-5-3.38-6.66-9.07-6.66h-8.28v22.12h4.72v-9.31Zm0-3.78V461.5h3.33c1.79,0,4.23.17,4.23,2.43,0,2.48-1.22,2.86-3.35,2.86Zm24,2c0-13-9.74-20.56-20.62-20.56s-20.64,7.58-20.64,20.56,9.72,20.54,20.64,20.54,20.62-7.55,20.62-20.54Zm-5.94,0c0,9.47-6.73,15.82-14.68,15.82v0c-8.15,0-14.72-6.3-14.72-15.77s6.57-15.74,14.72-15.74c7.95,0,14.68,6.3,14.68,15.74" transform="translate(-124.81 -61.91)"/><path class="cls-2" d="M469.05,137.35c-.38-.4-78.1-75.44-78.1-75.44h0s-77.73,75-78.11,75.44c-55.85,57,.69,106.25.69,106.25l64.86,62.94,12.56-165.35v0L403.5,306.54l64.86-62.94S524.91,194.31,469.05,137.35Z" transform="translate(-124.81 -61.91)"/><path class="cls-2" d="M200.25,250c-.39.38-75.44,78.1-75.44,78.1h0s75.05,77.73,75.44,78.11c57,55.85,106.26-.69,106.26-.69l62.93-64.86L204.09,328.13h0l165.35-12.55L306.51,250.7S257.21,194.16,200.25,250Z" transform="translate(-124.81 -61.91)"/><path class="cls-2" d="M581.8,250c.4.38,75.44,78.1,75.44,78.1h0s-75,77.73-75.44,78.11c-57,55.85-106.25-.69-106.25-.69l-62.94-64.86L578,328.13h0L412.61,315.56l62.94-64.86S524.84,194.16,581.8,250Z" transform="translate(-124.81 -61.91)"/><path class="cls-2" d="M381,384.5l-2.64-34.79-64.86,62.93s-34.93,30.46-22.75,71.17Z" transform="translate(-124.81 -61.91)"/><path class="cls-2" d="M386.23,453.06,319,524.9l19.87,19.19,49.76-59Z" transform="translate(-124.81 -61.91)"/><path class="cls-2" d="M382.25,400.74l-87.86,92.5c.07.13.12.26.19.4l.06.12a78.88,78.88,0,0,0,4.45,8l.43.68.19.29.8,1.21,0,.05c.53.78,1.07,1.56,1.64,2.34l.07.1c.56.77,1.14,1.56,1.75,2.34l.06.08c.28.37.59.74.88,1.11l1,1.28-1-1.28,1,1.28h0c1.51,1.84,3.12,3.68,4.86,5.54h0l-.07-.08q-.83-.88-1.62-1.77c-.43-.47-.84-1-1.26-1.43l-.35-.4L306,511.28l1.55,1.84.35.4c.42.48.83,1,1.26,1.43s1.07,1.18,1.62,1.77l.07.08c.58.62,1.16,1.23,1.77,1.85-.6-.61-1.19-1.23-1.76-1.84q.87.93,1.77,1.86L384.93,436Z" transform="translate(-124.81 -61.91)"/><path class="cls-2" d="M400.88,384.5l2.64-34.79,64.86,62.93s34.93,30.46,22.75,71.17Z" transform="translate(-124.81 -61.91)"/><path class="cls-2" d="M395.67,453.06l67.2,71.84L443,544.09l-49.76-59Z" transform="translate(-124.81 -61.91)"/><path class="cls-2" d="M399.64,400.74l87.86,92.5-.18.4-.06.12a80.86,80.86,0,0,1-4.45,8l-.44.68-.18.29-.8,1.21,0,.05c-.53.78-1.08,1.56-1.64,2.34a.86.86,0,0,0-.07.1c-.56.77-1.15,1.56-1.75,2.34l-.06.08L477,510l-1,1.28,1-1.28-1,1.28h0c-1.51,1.84-3.13,3.68-4.86,5.54h0l.07-.08q.83-.88,1.62-1.77c.43-.47.84-1,1.25-1.43l.36-.4c.53-.62,1-1.23,1.54-1.84-.5.61-1,1.22-1.54,1.84l-.36.4c-.41.48-.82,1-1.25,1.43s-1.07,1.18-1.62,1.77l-.07.08c-.58.62-1.17,1.23-1.77,1.85.6-.61,1.19-1.23,1.76-1.84q-.87.93-1.77,1.86L397,436Z" transform="translate(-124.81 -61.91)"/><path class="cls-2" d="M435.61,551.22l-43.53-50.84-1.15-1.32-1.11,1.32-43.54,50.84,44.65,43.12h0Z" transform="translate(-124.81 -61.91)"/></svg>
