<?xml version="1.0" standalone="no"?>
<!DOCTYPE svg PUBLIC "-//W3C//DTD SVG 20010904//EN"
 "http://www.w3.org/TR/2001/REC-SVG-20010904/DTD/svg10.dtd">
<svg version="1.0" xmlns="http://www.w3.org/2000/svg"
 width="256.000000pt" height="256.000000pt" viewBox="0 0 256.000000 256.000000"
 preserveAspectRatio="xMidYMid meet">
<metadata>
Created by potrace 1.11, written by Peter Selinger 2001-2013
</metadata>
<g transform="translate(0.000000,256.000000) scale(0.100000,-0.100000)"
fill="#000000" stroke="none">
<path d="M0 1280 l0 -1280 1280 0 1280 0 0 1280 0 1280 -1280 0 -1280 0 0
-1280z m2070 560 l0 -350 -110 0 -110 0 0 270 0 270 -427 -2 -428 -3 -3 -332
-2 -333 235 0 235 0 0 150 0 150 75 0 75 0 0 -375 0 -375 -75 0 -74 0 -3 157
-3 158 -230 0 -230 0 0 -345 0 -345 428 -3 427 -2 0 260 0 260 110 0 110 0 0
-345 0 -345 -830 0 -830 0 0 85 0 85 150 0 150 0 0 750 0 750 -150 0 -150 0 0
80 0 80 830 0 830 0 0 -350z"/>
</g>
</svg>
